<mxfile host="Electron" agent="Mozilla/5.0 (X11; Linux x86_64) AppleWebKit/537.36 (KHTML, like Gecko) draw.io/26.2.2 Chrome/134.0.6998.178 Electron/35.1.2 Safari/537.36" version="26.2.2">
  <diagram name="Page-1" id="Fm1AsnYphIPely5eG6aF">
    <mxGraphModel dx="486" dy="469" grid="1" gridSize="5" guides="1" tooltips="1" connect="1" arrows="1" fold="1" page="1" pageScale="1" pageWidth="850" pageHeight="1100" math="0" shadow="0">
      <root>
        <mxCell id="0" />
        <mxCell id="1" parent="0" />
        <mxCell id="dnxDbRUPJJcEOHSC3Vgf-9" value="PC" style="rounded=0;whiteSpace=wrap;html=1;" vertex="1" parent="1">
          <mxGeometry x="120" y="200" width="40" height="60" as="geometry" />
        </mxCell>
        <mxCell id="dnxDbRUPJJcEOHSC3Vgf-10" value="" style="group" vertex="1" connectable="0" parent="1">
          <mxGeometry x="130" y="200" width="20" height="10" as="geometry" />
        </mxCell>
        <mxCell id="dnxDbRUPJJcEOHSC3Vgf-11" value="" style="endArrow=none;html=1;rounded=0;" edge="1" parent="dnxDbRUPJJcEOHSC3Vgf-10">
          <mxGeometry width="50" height="50" relative="1" as="geometry">
            <mxPoint x="10" y="10" as="sourcePoint" />
            <mxPoint as="targetPoint" />
          </mxGeometry>
        </mxCell>
        <mxCell id="dnxDbRUPJJcEOHSC3Vgf-12" value="" style="endArrow=none;html=1;rounded=0;" edge="1" parent="dnxDbRUPJJcEOHSC3Vgf-10">
          <mxGeometry width="50" height="50" relative="1" as="geometry">
            <mxPoint x="10" y="10" as="sourcePoint" />
            <mxPoint x="20" as="targetPoint" />
            <Array as="points">
              <mxPoint x="10" y="10" />
            </Array>
          </mxGeometry>
        </mxCell>
        <mxCell id="dnxDbRUPJJcEOHSC3Vgf-27" value="" style="endArrow=none;html=1;rounded=0;exitX=0;exitY=0.5;exitDx=0;exitDy=0;endFill=1;startArrow=block;startFill=1;endSize=3;startSize=3;" edge="1" parent="1" source="dnxDbRUPJJcEOHSC3Vgf-9">
          <mxGeometry width="50" height="50" relative="1" as="geometry">
            <mxPoint x="310" y="370" as="sourcePoint" />
            <mxPoint x="110" y="230" as="targetPoint" />
          </mxGeometry>
        </mxCell>
        <mxCell id="dnxDbRUPJJcEOHSC3Vgf-29" value="" style="endArrow=block;html=1;rounded=0;endFill=1;endSize=3;startSize=3;" edge="1" parent="1">
          <mxGeometry width="50" height="50" relative="1" as="geometry">
            <mxPoint x="160" y="230" as="sourcePoint" />
            <mxPoint x="180" y="230" as="targetPoint" />
          </mxGeometry>
        </mxCell>
        <mxCell id="dnxDbRUPJJcEOHSC3Vgf-31" value="" style="endArrow=none;html=1;rounded=0;endFill=1;startArrow=block;startFill=1;startSize=3;endSize=3;" edge="1" parent="1">
          <mxGeometry width="50" height="50" relative="1" as="geometry">
            <mxPoint x="90" y="210" as="sourcePoint" />
            <mxPoint x="170" y="230" as="targetPoint" />
            <Array as="points">
              <mxPoint x="80" y="210" />
              <mxPoint x="80" y="190" />
              <mxPoint x="170" y="190" />
              <mxPoint x="170" y="210" />
            </Array>
          </mxGeometry>
        </mxCell>
        <mxCell id="dnxDbRUPJJcEOHSC3Vgf-33" value="Instruction&lt;br&gt;Memory" style="rounded=0;whiteSpace=wrap;html=1;" vertex="1" parent="1">
          <mxGeometry x="180" y="200" width="80" height="160" as="geometry" />
        </mxCell>
        <mxCell id="dnxDbRUPJJcEOHSC3Vgf-34" value="" style="endArrow=none;html=1;rounded=0;" edge="1" parent="1">
          <mxGeometry width="50" height="50" relative="1" as="geometry">
            <mxPoint x="280" y="230" as="sourcePoint" />
            <mxPoint x="260" y="230" as="targetPoint" />
          </mxGeometry>
        </mxCell>
        <mxCell id="dnxDbRUPJJcEOHSC3Vgf-35" value="" style="endArrow=none;html=1;rounded=0;" edge="1" parent="1">
          <mxGeometry width="50" height="50" relative="1" as="geometry">
            <mxPoint x="280" y="400" as="sourcePoint" />
            <mxPoint x="280" y="200" as="targetPoint" />
          </mxGeometry>
        </mxCell>
        <mxCell id="dnxDbRUPJJcEOHSC3Vgf-51" value="" style="endArrow=block;html=1;rounded=0;endFill=1;endSize=3;startSize=9;" edge="1" parent="1">
          <mxGeometry width="50" height="50" relative="1" as="geometry">
            <mxPoint x="280" y="250" as="sourcePoint" />
            <mxPoint x="380" y="250" as="targetPoint" />
          </mxGeometry>
        </mxCell>
        <mxCell id="dnxDbRUPJJcEOHSC3Vgf-52" value="[20..16]" style="edgeLabel;html=1;align=center;verticalAlign=middle;resizable=0;points=[];labelBackgroundColor=default;" vertex="1" connectable="0" parent="dnxDbRUPJJcEOHSC3Vgf-51">
          <mxGeometry x="-0.1862" y="-1" relative="1" as="geometry">
            <mxPoint x="-22" y="-11" as="offset" />
          </mxGeometry>
        </mxCell>
        <mxCell id="dnxDbRUPJJcEOHSC3Vgf-56" value="" style="endArrow=block;html=1;rounded=0;endFill=1;endSize=3;startSize=9;" edge="1" parent="1">
          <mxGeometry width="50" height="50" relative="1" as="geometry">
            <mxPoint x="280" y="320" as="sourcePoint" />
            <mxPoint x="320" y="320" as="targetPoint" />
          </mxGeometry>
        </mxCell>
        <mxCell id="dnxDbRUPJJcEOHSC3Vgf-60" value="" style="endArrow=none;html=1;rounded=0;" edge="1" parent="1">
          <mxGeometry width="50" height="50" relative="1" as="geometry">
            <mxPoint x="320" y="340" as="sourcePoint" />
            <mxPoint x="320" y="340" as="targetPoint" />
            <Array as="points">
              <mxPoint x="340" y="320" />
              <mxPoint x="340" y="280" />
              <mxPoint x="320" y="260" />
            </Array>
          </mxGeometry>
        </mxCell>
        <mxCell id="dnxDbRUPJJcEOHSC3Vgf-61" value="" style="endArrow=block;html=1;rounded=0;endFill=1;endSize=3;startSize=9;" edge="1" parent="1">
          <mxGeometry width="50" height="50" relative="1" as="geometry">
            <mxPoint x="300" y="250" as="sourcePoint" />
            <mxPoint x="320" y="280" as="targetPoint" />
            <Array as="points">
              <mxPoint x="300" y="280" />
            </Array>
          </mxGeometry>
        </mxCell>
        <mxCell id="dnxDbRUPJJcEOHSC3Vgf-62" value="[15..11]" style="edgeLabel;html=1;align=center;verticalAlign=middle;resizable=0;points=[];" vertex="1" connectable="0" parent="1">
          <mxGeometry x="298.99807519532254" y="309.9952174283252" as="geometry" />
        </mxCell>
        <mxCell id="dnxDbRUPJJcEOHSC3Vgf-68" value="" style="endArrow=none;html=1;rounded=0;exitX=0.004;exitY=0.127;exitDx=0;exitDy=0;exitPerimeter=0;endFill=1;endSize=3;startSize=3;startArrow=block;startFill=1;" edge="1" parent="1" source="dnxDbRUPJJcEOHSC3Vgf-3">
          <mxGeometry width="50" height="50" relative="1" as="geometry">
            <mxPoint x="375" y="220" as="sourcePoint" />
            <mxPoint x="280" y="220" as="targetPoint" />
          </mxGeometry>
        </mxCell>
        <mxCell id="dnxDbRUPJJcEOHSC3Vgf-69" value="" style="group" vertex="1" connectable="0" parent="1">
          <mxGeometry x="380" y="200" width="80" height="160" as="geometry" />
        </mxCell>
        <mxCell id="dnxDbRUPJJcEOHSC3Vgf-3" value="" style="rounded=0;whiteSpace=wrap;html=1;" vertex="1" parent="dnxDbRUPJJcEOHSC3Vgf-69">
          <mxGeometry width="80" height="160" as="geometry" />
        </mxCell>
        <mxCell id="dnxDbRUPJJcEOHSC3Vgf-7" value="" style="group" vertex="1" connectable="0" parent="dnxDbRUPJJcEOHSC3Vgf-69">
          <mxGeometry x="10" width="20" height="10" as="geometry" />
        </mxCell>
        <mxCell id="dnxDbRUPJJcEOHSC3Vgf-5" value="" style="endArrow=none;html=1;rounded=0;" edge="1" parent="dnxDbRUPJJcEOHSC3Vgf-7">
          <mxGeometry width="50" height="50" relative="1" as="geometry">
            <mxPoint x="10" y="10" as="sourcePoint" />
            <mxPoint as="targetPoint" />
          </mxGeometry>
        </mxCell>
        <mxCell id="dnxDbRUPJJcEOHSC3Vgf-6" value="" style="endArrow=none;html=1;rounded=0;" edge="1" parent="dnxDbRUPJJcEOHSC3Vgf-7">
          <mxGeometry width="50" height="50" relative="1" as="geometry">
            <mxPoint x="10" y="10" as="sourcePoint" />
            <mxPoint x="20" as="targetPoint" />
            <Array as="points">
              <mxPoint x="10" y="10" />
            </Array>
          </mxGeometry>
        </mxCell>
        <mxCell id="dnxDbRUPJJcEOHSC3Vgf-83" value="Register&lt;br&gt;File" style="text;html=1;align=center;verticalAlign=middle;whiteSpace=wrap;rounded=0;" vertex="1" parent="dnxDbRUPJJcEOHSC3Vgf-69">
          <mxGeometry x="10" y="60" width="60" height="30" as="geometry" />
        </mxCell>
        <mxCell id="dnxDbRUPJJcEOHSC3Vgf-70" value="" style="endArrow=block;html=1;rounded=0;endFill=1;endSize=3;startSize=9;" edge="1" parent="1">
          <mxGeometry width="50" height="50" relative="1" as="geometry">
            <mxPoint x="340" y="300" as="sourcePoint" />
            <mxPoint x="380" y="300" as="targetPoint" />
          </mxGeometry>
        </mxCell>
        <mxCell id="dnxDbRUPJJcEOHSC3Vgf-24" value="+" style="text;html=1;align=center;verticalAlign=middle;whiteSpace=wrap;rounded=0;" vertex="1" parent="1">
          <mxGeometry x="95" y="225" width="20" height="10" as="geometry" />
        </mxCell>
        <mxCell id="dnxDbRUPJJcEOHSC3Vgf-25" value="4" style="text;html=1;align=center;verticalAlign=middle;whiteSpace=wrap;rounded=0;" vertex="1" parent="1">
          <mxGeometry x="60" y="240" width="20" height="20" as="geometry" />
        </mxCell>
        <mxCell id="dnxDbRUPJJcEOHSC3Vgf-26" value="" style="endArrow=block;html=1;rounded=0;exitX=1;exitY=0.5;exitDx=0;exitDy=0;endFill=1;startSize=3;endSize=3;" edge="1" parent="1" source="dnxDbRUPJJcEOHSC3Vgf-25">
          <mxGeometry width="50" height="50" relative="1" as="geometry">
            <mxPoint x="340" y="370" as="sourcePoint" />
            <mxPoint x="90" y="250" as="targetPoint" />
            <Array as="points">
              <mxPoint x="90" y="250" />
            </Array>
          </mxGeometry>
        </mxCell>
        <mxCell id="dnxDbRUPJJcEOHSC3Vgf-71" value="" style="endArrow=none;html=1;rounded=0;" edge="1" parent="1">
          <mxGeometry width="50" height="50" relative="1" as="geometry">
            <mxPoint x="90" y="200" as="sourcePoint" />
            <mxPoint x="90" y="200" as="targetPoint" />
            <Array as="points">
              <mxPoint x="90" y="220" />
              <mxPoint x="100" y="230" />
              <mxPoint x="90" y="240" />
              <mxPoint x="90" y="260" />
              <mxPoint x="110" y="240" />
              <mxPoint x="110" y="220" />
            </Array>
          </mxGeometry>
        </mxCell>
        <mxCell id="dnxDbRUPJJcEOHSC3Vgf-77" value="" style="endArrow=none;html=1;rounded=0;" edge="1" parent="1">
          <mxGeometry width="50" height="50" relative="1" as="geometry">
            <mxPoint x="530" y="200" as="sourcePoint" />
            <mxPoint x="530" y="200" as="targetPoint" />
            <Array as="points">
              <mxPoint x="530" y="260" />
              <mxPoint x="540" y="270" />
              <mxPoint x="530" y="280" />
              <mxPoint x="530" y="340" />
              <mxPoint x="570" y="300" />
              <mxPoint x="570" y="240" />
            </Array>
          </mxGeometry>
        </mxCell>
        <mxCell id="dnxDbRUPJJcEOHSC3Vgf-78" value="Alu" style="text;html=1;align=center;verticalAlign=middle;whiteSpace=wrap;rounded=0;" vertex="1" parent="1">
          <mxGeometry x="540" y="265" width="30" height="10" as="geometry" />
        </mxCell>
        <mxCell id="dnxDbRUPJJcEOHSC3Vgf-79" value="" style="endArrow=none;html=1;rounded=0;" edge="1" parent="1">
          <mxGeometry width="50" height="50" relative="1" as="geometry">
            <mxPoint x="490" y="350" as="sourcePoint" />
            <mxPoint x="490" y="350" as="targetPoint" />
            <Array as="points">
              <mxPoint x="510" y="330" />
              <mxPoint x="510" y="290" />
              <mxPoint x="490" y="270" />
            </Array>
          </mxGeometry>
        </mxCell>
        <mxCell id="dnxDbRUPJJcEOHSC3Vgf-80" value="" style="endArrow=block;html=1;rounded=0;endFill=1;endSize=3;startSize=9;" edge="1" parent="1">
          <mxGeometry width="50" height="50" relative="1" as="geometry">
            <mxPoint x="460" y="230" as="sourcePoint" />
            <mxPoint x="530" y="230" as="targetPoint" />
          </mxGeometry>
        </mxCell>
        <mxCell id="dnxDbRUPJJcEOHSC3Vgf-81" value="" style="endArrow=none;html=1;rounded=0;endFill=1;endSize=3;startSize=3;startArrow=block;startFill=1;" edge="1" parent="1">
          <mxGeometry width="50" height="50" relative="1" as="geometry">
            <mxPoint x="530" y="310" as="sourcePoint" />
            <mxPoint x="510" y="310" as="targetPoint" />
          </mxGeometry>
        </mxCell>
        <mxCell id="dnxDbRUPJJcEOHSC3Vgf-82" value="" style="endArrow=block;html=1;rounded=0;endFill=1;endSize=3;startSize=9;" edge="1" parent="1">
          <mxGeometry width="50" height="50" relative="1" as="geometry">
            <mxPoint x="460" y="290" as="sourcePoint" />
            <mxPoint x="490" y="290" as="targetPoint" />
          </mxGeometry>
        </mxCell>
        <mxCell id="dnxDbRUPJJcEOHSC3Vgf-84" value="" style="endArrow=none;html=1;rounded=0;" edge="1" parent="1">
          <mxGeometry width="50" height="50" relative="1" as="geometry">
            <mxPoint x="380" y="400" as="sourcePoint" />
            <mxPoint x="380" y="400" as="targetPoint" />
            <Array as="points">
              <mxPoint x="380" y="380" />
              <mxPoint x="460" y="370" />
              <mxPoint x="460" y="400" />
            </Array>
          </mxGeometry>
        </mxCell>
        <mxCell id="dnxDbRUPJJcEOHSC3Vgf-86" value="" style="endArrow=none;html=1;rounded=0;" edge="1" parent="1">
          <mxGeometry width="50" height="50" relative="1" as="geometry">
            <mxPoint x="330" y="350" as="sourcePoint" />
            <mxPoint x="330" y="330" as="targetPoint" />
          </mxGeometry>
        </mxCell>
        <mxCell id="dnxDbRUPJJcEOHSC3Vgf-87" value="" style="endArrow=block;html=1;rounded=0;endFill=1;endSize=3;startSize=9;" edge="1" parent="1">
          <mxGeometry width="50" height="50" relative="1" as="geometry">
            <mxPoint x="280" y="385" as="sourcePoint" />
            <mxPoint x="380" y="385" as="targetPoint" />
          </mxGeometry>
        </mxCell>
        <mxCell id="dnxDbRUPJJcEOHSC3Vgf-89" value="&lt;font face=&quot;Courier New&quot;&gt;&lt;b&gt;wb_reg&lt;/b&gt;&lt;/font&gt;" style="text;html=1;align=center;verticalAlign=middle;whiteSpace=wrap;rounded=0;" vertex="1" parent="1">
          <mxGeometry x="310" y="346" width="45" height="14" as="geometry" />
        </mxCell>
        <mxCell id="dnxDbRUPJJcEOHSC3Vgf-90" value="" style="endArrow=block;html=1;rounded=0;endFill=1;endSize=3;startSize=9;" edge="1" parent="1">
          <mxGeometry width="50" height="50" relative="1" as="geometry">
            <mxPoint x="360" y="335" as="sourcePoint" />
            <mxPoint x="380" y="335" as="targetPoint" />
          </mxGeometry>
        </mxCell>
        <mxCell id="dnxDbRUPJJcEOHSC3Vgf-91" value="&lt;font face=&quot;Courier New&quot;&gt;&lt;b&gt;rf_wb&lt;/b&gt;&lt;/font&gt;" style="text;html=1;align=center;verticalAlign=middle;whiteSpace=wrap;rounded=0;" vertex="1" parent="1">
          <mxGeometry x="335" y="322" width="45" height="10" as="geometry" />
        </mxCell>
        <mxCell id="dnxDbRUPJJcEOHSC3Vgf-92" value="" style="endArrow=block;html=1;rounded=0;endFill=1;endSize=3;startSize=9;" edge="1" parent="1">
          <mxGeometry width="50" height="50" relative="1" as="geometry">
            <mxPoint x="360" y="395" as="sourcePoint" />
            <mxPoint x="380" y="395" as="targetPoint" />
          </mxGeometry>
        </mxCell>
        <mxCell id="dnxDbRUPJJcEOHSC3Vgf-94" value="Extender" style="text;html=1;align=center;verticalAlign=middle;whiteSpace=wrap;rounded=0;" vertex="1" parent="1">
          <mxGeometry x="396.5" y="385" width="47" height="10" as="geometry" />
        </mxCell>
        <mxCell id="dnxDbRUPJJcEOHSC3Vgf-95" value="&lt;font face=&quot;Courier New&quot;&gt;&lt;b&gt;sign_ext&lt;/b&gt;&lt;/font&gt;" style="text;html=1;align=center;verticalAlign=middle;whiteSpace=wrap;rounded=0;" vertex="1" parent="1">
          <mxGeometry x="309" y="388" width="45" height="14" as="geometry" />
        </mxCell>
        <mxCell id="dnxDbRUPJJcEOHSC3Vgf-96" value="" style="endArrow=block;html=1;rounded=0;endFill=1;endSize=3;startSize=9;" edge="1" parent="1">
          <mxGeometry width="50" height="50" relative="1" as="geometry">
            <mxPoint x="460" y="385" as="sourcePoint" />
            <mxPoint x="490" y="330" as="targetPoint" />
            <Array as="points">
              <mxPoint x="475" y="385" />
              <mxPoint x="475" y="330" />
            </Array>
          </mxGeometry>
        </mxCell>
        <mxCell id="dnxDbRUPJJcEOHSC3Vgf-97" value="" style="endArrow=none;html=1;rounded=0;" edge="1" parent="1">
          <mxGeometry width="50" height="50" relative="1" as="geometry">
            <mxPoint x="500" y="360" as="sourcePoint" />
            <mxPoint x="500" y="340" as="targetPoint" />
          </mxGeometry>
        </mxCell>
        <mxCell id="dnxDbRUPJJcEOHSC3Vgf-98" value="&lt;font face=&quot;Courier New&quot;&gt;&lt;b&gt;alu_src&lt;/b&gt;&lt;/font&gt;" style="text;html=1;align=center;verticalAlign=middle;whiteSpace=wrap;rounded=0;" vertex="1" parent="1">
          <mxGeometry x="485" y="357" width="45" height="14" as="geometry" />
        </mxCell>
        <mxCell id="dnxDbRUPJJcEOHSC3Vgf-99" value="" style="endArrow=none;html=1;rounded=0;" edge="1" parent="1">
          <mxGeometry width="50" height="50" relative="1" as="geometry">
            <mxPoint x="540" y="350" as="sourcePoint" />
            <mxPoint x="540" y="330" as="targetPoint" />
          </mxGeometry>
        </mxCell>
        <mxCell id="dnxDbRUPJJcEOHSC3Vgf-100" value="" style="endArrow=none;html=1;rounded=0;" edge="1" parent="1">
          <mxGeometry width="50" height="50" relative="1" as="geometry">
            <mxPoint x="560" y="330" as="sourcePoint" />
            <mxPoint x="560" y="310" as="targetPoint" />
          </mxGeometry>
        </mxCell>
        <mxCell id="dnxDbRUPJJcEOHSC3Vgf-101" value="&lt;font face=&quot;Courier New&quot;&gt;&lt;b&gt;sub&lt;/b&gt;&lt;/font&gt;" style="text;html=1;align=center;verticalAlign=middle;whiteSpace=wrap;rounded=0;" vertex="1" parent="1">
          <mxGeometry x="540" y="338" width="25" height="12" as="geometry" />
        </mxCell>
        <mxCell id="dnxDbRUPJJcEOHSC3Vgf-102" value="&lt;font face=&quot;Courier New&quot;&gt;&lt;b&gt;op&lt;/b&gt;&lt;/font&gt;" style="text;html=1;align=center;verticalAlign=middle;whiteSpace=wrap;rounded=0;" vertex="1" parent="1">
          <mxGeometry x="556" y="320" width="25" height="12" as="geometry" />
        </mxCell>
        <mxCell id="dnxDbRUPJJcEOHSC3Vgf-104" value="" style="endArrow=block;html=1;rounded=0;entryX=0;entryY=0.937;entryDx=0;entryDy=0;entryPerimeter=0;endFill=1;endSize=3;startSize=3;" edge="1" parent="1" target="dnxDbRUPJJcEOHSC3Vgf-3">
          <mxGeometry width="50" height="50" relative="1" as="geometry">
            <mxPoint x="570" y="270" as="sourcePoint" />
            <mxPoint x="375" y="350" as="targetPoint" />
            <Array as="points">
              <mxPoint x="590" y="270" />
              <mxPoint x="590" y="410" />
              <mxPoint x="370" y="410" />
              <mxPoint x="370" y="350" />
            </Array>
          </mxGeometry>
        </mxCell>
        <mxCell id="dnxDbRUPJJcEOHSC3Vgf-105" value="" style="endArrow=none;html=1;rounded=0;endFill=1;startArrow=block;startFill=1;endSize=3;startSize=3;" edge="1" parent="1">
          <mxGeometry width="50" height="50" relative="1" as="geometry">
            <mxPoint x="590" y="195" as="sourcePoint" />
            <mxPoint x="570" y="255" as="targetPoint" />
            <Array as="points">
              <mxPoint x="590" y="255" />
            </Array>
          </mxGeometry>
        </mxCell>
        <mxCell id="dnxDbRUPJJcEOHSC3Vgf-106" value="&lt;font face=&quot;Courier New&quot;&gt;&lt;b&gt;&lt;i&gt;z&lt;/i&gt;&lt;/b&gt;&lt;/font&gt;" style="text;html=1;align=center;verticalAlign=middle;whiteSpace=wrap;rounded=0;" vertex="1" parent="1">
          <mxGeometry x="577" y="182" width="25" height="12" as="geometry" />
        </mxCell>
        <mxCell id="dnxDbRUPJJcEOHSC3Vgf-108" value="[25..21]" style="edgeLabel;html=1;align=center;verticalAlign=middle;resizable=0;points=[];labelBackgroundColor=default;" vertex="1" connectable="0" parent="1">
          <mxGeometry x="298.9966666666666" y="210" as="geometry" />
        </mxCell>
        <mxCell id="dnxDbRUPJJcEOHSC3Vgf-109" value="[15..0]" style="edgeLabel;html=1;align=center;verticalAlign=middle;resizable=0;points=[];labelBackgroundColor=default;" vertex="1" connectable="0" parent="1">
          <mxGeometry x="296.9966666666666" y="375" as="geometry" />
        </mxCell>
      </root>
    </mxGraphModel>
  </diagram>
</mxfile>
